<svg width="373" height="373" xmlns="http://www.w3.org/2000/svg" xmlns:xlink="http://www.w3.org/1999/xlink" xml:space="preserve" overflow="hidden"><defs><clipPath id="clip0"><rect x="2200" y="1235" width="373" height="373"/></clipPath></defs><g clip-path="url(#clip0)" transform="translate(-2200 -1235)"><path d="M2243.5 1422C2243.5 1342.19 2308.2 1277.5 2388 1277.5 2467.81 1277.5 2532.5 1342.19 2532.5 1422 2532.5 1501.81 2467.81 1566.5 2388 1566.5 2308.2 1566.5 2243.5 1501.81 2243.5 1422Z" stroke="#333F50" stroke-width="20.625" stroke-miterlimit="8" fill="#F2F2F2" fill-rule="evenodd"/><path d="M2552.83 1239.48 2501.27 1282.07C2497.12 1277.03 2477.73 1253.16 2472.58 1248 2468.26 1242.29 2453.86 1237.86 2452.4 1256.52 2451.11 1277.48 2449.26 1299.28 2448.82 1303.59 2438.28 1312.73 2398.16 1345.29 2398.16 1345.29 2398.16 1345.29 2383.53 1329.88 2373.5 1339.91 2363.47 1348.54 2297.73 1402.67 2297.73 1402.67 2297.73 1402.67 2294.88 1407.15 2297.73 1414.33 2300.59 1422.96 2303.28 1428.51 2300.42 1431.36 2296.11 1434.22 2276.21 1452.88 2276.21 1452.88 2276.21 1452.88 2270.39 1458.88 2270.39 1470.37 2271.84 1481.85 2264.39 1493.06 2252.9 1503.09 2241.41 1513.12 2208.52 1540.75 2208.52 1540.75 2208.52 1540.75 2197.2 1547.81 2205.83 1556.44L2238.56 1596.34C2238.56 1596.34 2250.1 1613.72 2258.73 1600.83 2267.36 1587.94 2317.46 1484.71 2317.46 1484.71 2317.46 1484.71 2323.57 1476.08 2326.43 1491.89 2329.28 1506.23 2359.15 1579.31 2359.15 1579.31 2359.15 1579.31 2363.75 1584.97 2369.46 1580.65 2375.18 1576.34 2396.36 1557.79 2396.36 1557.79 2396.36 1557.79 2403.54 1555.1 2396.36 1540.75 2391.6 1531.23 2380.78 1504.94 2372.15 1484.71 2375.29 1482.14 2377.03 1480.51 2389.19 1470.37 2397.15 1463.75 2399.5 1455.12 2399.5 1447.95 2412.73 1459.1 2435.59 1475.92 2465.4 1483.37 2505.58 1493.4 2541.62 1494.58 2541.62 1494.58 2541.62 1494.58 2550.02 1494.58 2551.48 1480.23 2552.94 1465.88 2551.48 1444.36 2551.48 1444.36 2551.48 1444.36 2552.94 1434.5 2544.31 1434.5 2535.68 1434.5 2521.27 1437.08 2502.61 1431.36 2483.95 1425.65 2442.54 1395.5 2442.54 1395.5 2442.54 1395.5 2435.37 1389.95 2442.54 1385.63 2448.26 1379.92 2492.75 1343.94 2492.75 1343.94 2492.75 1343.94 2499.76 1338.45 2495.44 1332.73 2491.13 1327.02 2488.27 1323.77 2488.27 1323.77L2567.17 1256.52ZM2472.58 1282.07C2473.42 1282.19 2474.2 1282.8 2475.27 1283.87 2478.57 1287.17 2483 1292.61 2485.13 1295.52L2472.13 1305.83C2471.68 1301.91 2470.95 1295.35 2469.89 1291.04 2468.82 1285.66 2470 1281.79 2472.58 1282.07ZM2379.33 1435.85C2380.34 1435.4 2381.23 1435.51 2382.91 1435.85 2382.91 1435.9 2383.36 1435.79 2383.36 1435.85 2385.44 1448.12 2380 1457.98 2374.84 1461.85 2370.75 1465.94 2368.29 1467.9 2365.88 1469.92 2365.2 1468.29 2362.29 1461.85 2362.29 1461.85 2362.29 1461.85 2357.92 1453.16 2363.64 1448.85 2369.35 1444.53 2376.64 1438.54 2376.64 1438.54 2376.64 1438.54 2377.37 1436.74 2379.33 1435.85Z" fill="#181717"/></g></svg>