<svg width="109" height="109" xmlns="http://www.w3.org/2000/svg" xmlns:xlink="http://www.w3.org/1999/xlink" xml:space="preserve" overflow="hidden"><defs><clipPath id="clip0"><rect x="627" y="347" width="109" height="109"/></clipPath></defs><g clip-path="url(#clip0)" transform="translate(-627 -347)"><path d="M730.105 348.31 715.038 360.756C713.826 359.282 708.161 352.306 706.654 350.799 705.393 349.129 701.184 347.835 700.759 353.288 700.382 359.413 699.841 365.784 699.711 367.044 696.632 369.714 684.906 379.228 684.906 379.228 684.906 379.228 680.632 374.725 677.701 377.656 674.769 380.178 655.56 395.998 655.56 395.998 655.56 395.998 654.725 397.308 655.56 399.404 656.395 401.926 657.181 403.547 656.346 404.382 655.085 405.217 649.272 410.671 649.272 410.671 649.272 410.671 647.568 412.423 647.568 415.78 647.994 419.137 645.816 422.412 642.459 425.344 639.102 428.275 629.489 436.349 629.489 436.349 629.489 436.349 626.181 438.412 628.703 440.934L638.267 452.594C638.267 452.594 641.64 457.67 644.162 453.904 646.684 450.137 661.325 419.972 661.325 419.972 661.325 419.972 663.109 417.45 663.945 422.068 664.78 426.261 673.509 447.615 673.509 447.615 673.509 447.615 674.851 449.269 676.522 448.009 678.192 446.748 684.382 441.327 684.382 441.327 684.382 441.327 686.478 440.541 684.382 436.349 682.99 433.564 679.83 425.884 677.308 419.972 678.225 419.219 678.732 418.744 682.286 415.78 684.612 413.848 685.299 411.326 685.299 409.23 689.164 412.488 695.846 417.401 704.558 419.579 716.299 422.511 726.829 422.855 726.829 422.855 726.829 422.855 729.286 422.855 729.712 418.662 730.137 414.47 729.712 408.182 729.712 408.182 729.712 408.182 730.137 405.299 727.615 405.299 725.093 405.299 720.885 406.052 715.432 404.382 709.978 402.712 697.876 393.901 697.876 393.901 697.876 393.901 695.78 392.28 697.876 391.019 699.547 389.349 712.549 378.835 712.549 378.835 712.549 378.835 714.596 377.23 713.336 375.56 712.074 373.89 711.239 372.94 711.239 372.94L734.297 353.288ZM706.654 360.756C706.9 360.789 707.129 360.969 707.44 361.28 708.406 362.246 709.7 363.835 710.322 364.686L706.523 367.7C706.392 366.553 706.179 364.637 705.868 363.376 705.557 361.804 705.901 360.674 706.654 360.756ZM679.404 405.692C679.699 405.561 679.961 405.594 680.452 405.692 680.452 405.709 680.583 405.676 680.583 405.692 681.189 409.279 679.6 412.161 678.094 413.291 676.898 414.487 676.178 415.06 675.474 415.649 675.277 415.174 674.425 413.291 674.425 413.291 674.425 413.291 673.148 410.752 674.818 409.491 676.489 408.231 678.618 406.478 678.618 406.478 678.618 406.478 678.831 405.954 679.404 405.692Z" fill="#C00000"/></g></svg>