<svg width="792" height="424" xmlns="http://www.w3.org/2000/svg" xmlns:xlink="http://www.w3.org/1999/xlink" xml:space="preserve" overflow="hidden"><defs><clipPath id="clip0"><rect x="1534" y="242" width="792" height="424"/></clipPath></defs><g clip-path="url(#clip0)" transform="translate(-1534 -242)"><text font-family="Stencil,Stencil_MSFontService,sans-serif" font-weight="400" font-size="202" transform="matrix(1 0 0 1 1735.92 488)">SCSG</text><path d="M1727.09 325 1698.67 348.499C1696.38 345.716 1685.69 332.544 1682.85 329.7 1680.47 326.546 1672.53 324.103 1671.73 334.4 1671.02 345.964 1670 357.992 1669.75 360.373 1663.94 365.413 1641.82 383.377 1641.82 383.377 1641.82 383.377 1633.76 374.874 1628.23 380.409 1622.7 385.171 1586.46 415.04 1586.46 415.04 1586.46 415.04 1584.88 417.513 1586.46 421.471 1588.03 426.233 1589.52 429.294 1587.94 430.871 1585.56 432.448 1574.59 442.745 1574.59 442.745 1574.59 442.745 1571.38 446.053 1571.38 452.391 1572.18 458.73 1568.07 464.914 1561.74 470.449 1555.41 475.984 1537.27 491.228 1537.27 491.228 1537.27 491.228 1531.03 495.124 1535.79 499.885L1553.83 521.901C1553.83 521.901 1560.2 531.486 1564.95 524.374 1569.71 517.263 1597.33 460.307 1597.33 460.307 1597.33 460.307 1600.7 455.546 1602.27 464.265 1603.85 472.18 1620.32 512.501 1620.32 512.501 1620.32 512.501 1622.85 515.624 1626 513.243 1629.15 510.862 1640.83 500.627 1640.83 500.627 1640.83 500.627 1644.79 499.143 1640.83 491.228 1638.21 485.971 1632.24 471.469 1627.49 460.307 1629.22 458.885 1630.17 457.989 1636.88 452.391 1641.26 448.743 1642.56 443.982 1642.56 440.024 1649.85 446.177 1662.46 455.453 1678.89 459.565 1701.05 465.1 1720.91 465.75 1720.91 465.75 1720.91 465.75 1725.55 465.75 1726.35 457.834 1727.15 449.918 1726.35 438.045 1726.35 438.045 1726.35 438.045 1727.15 432.602 1722.39 432.602 1717.64 432.602 1709.7 434.025 1699.41 430.871 1689.12 427.718 1666.29 411.082 1666.29 411.082 1666.29 411.082 1662.33 408.021 1666.29 405.64 1669.44 402.487 1693.97 382.635 1693.97 382.635 1693.97 382.635 1697.83 379.605 1695.45 376.451 1693.08 373.297 1691.5 371.504 1691.5 371.504L1735 334.4ZM1682.85 348.499C1683.31 348.561 1683.75 348.901 1684.33 349.489 1686.15 351.313 1688.6 354.312 1689.77 355.92L1682.6 361.61C1682.35 359.445 1681.95 355.828 1681.37 353.446 1680.78 350.478 1681.43 348.345 1682.85 348.499ZM1631.44 433.345C1632 433.098 1632.49 433.159 1633.42 433.345 1633.42 433.375 1633.66 433.314 1633.66 433.345 1634.81 440.117 1631.81 445.558 1628.97 447.692 1626.71 449.949 1625.35 451.032 1624.02 452.144 1623.65 451.247 1622.05 447.692 1622.05 447.692 1622.05 447.692 1619.64 442.899 1622.79 440.518 1625.94 438.138 1629.96 434.829 1629.96 434.829 1629.96 434.829 1630.36 433.84 1631.44 433.345Z" fill-rule="evenodd"/></g></svg>