<svg width="182" height="46" xmlns="http://www.w3.org/2000/svg" xmlns:xlink="http://www.w3.org/1999/xlink" xml:space="preserve" overflow="hidden"><defs><clipPath id="clip0"><rect x="83" y="46" width="182" height="46"/></clipPath><clipPath id="clip1"><rect x="83" y="51" width="36" height="36"/></clipPath><clipPath id="clip2"><rect x="83" y="51" width="36" height="36"/></clipPath><clipPath id="clip3"><rect x="83" y="51" width="36" height="36"/></clipPath></defs><g clip-path="url(#clip0)" transform="translate(-83 -46)"><text font-family="Cyberspace,Cyberspace_MSFontService,sans-serif" font-weight="400" font-size="202" transform="matrix(0.169689 0 0 0.169652 119.3 82)">SCSG</text><g clip-path="url(#clip1)"><g clip-path="url(#clip2)"><g clip-path="url(#clip3)"><path d="M33.058 0.420051 28.2275 4.41054C27.8388 3.93797 26.0222 1.7012 25.539 1.21815 25.1347 0.682583 23.7853 0.267783 23.6489 2.01624 23.5281 3.97998 23.3548 6.02248 23.3129 6.42678 22.3257 7.28264 18.5662 10.3332 18.5662 10.3332 18.5662 10.3332 17.1959 8.88933 16.256 9.8292 15.3161 10.6378 9.1571 15.7099 9.1571 15.7099 9.1571 15.7099 8.88933 16.13 9.1571 16.802 9.4249 17.6107 9.67692 18.1305 9.40914 18.3982 9.00484 18.6659 7.14086 20.4145 7.14086 20.4145 7.14086 20.4145 6.5948 20.9762 6.5948 22.0527 6.73132 23.1291 6.03298 24.1791 4.95659 25.119 3.88022 26.0588 0.798096 28.6476 0.798096 28.6476 0.798096 28.6476-0.262533 29.309 0.546066 30.1176L3.61244 33.856C3.61244 33.856 4.69408 35.4838 5.50267 34.2761 6.31126 33.0685 11.0053 23.3968 11.0053 23.3968 11.0053 23.3968 11.5777 22.5883 11.8454 24.069 12.1132 25.4131 14.9118 32.26 14.9118 32.26 14.9118 32.26 15.3424 32.7903 15.8779 32.386 16.4135 31.9816 18.3982 30.2436 18.3982 30.2436 18.3982 30.2436 19.0704 29.9917 18.3982 28.6476 17.9519 27.7548 16.9386 25.2924 16.13 23.3968 16.424 23.1553 16.5868 23.0031 17.7262 22.0527 18.4717 21.4331 18.6922 20.6246 18.6922 19.9524 19.9314 20.9973 22.0737 22.5725 24.867 23.2708 28.6318 24.2107 32.0078 24.3209 32.0078 24.3209 32.0078 24.3209 32.7955 24.3209 32.9319 22.9768 33.0685 21.6326 32.9319 19.6163 32.9319 19.6163 32.9319 19.6163 33.0685 18.6922 32.26 18.6922 31.4514 18.6922 30.102 18.9338 28.3534 18.3982 26.6049 17.8626 22.7247 15.0378 22.7247 15.0378 22.7247 15.0378 22.0527 14.518 22.7247 14.1137 23.2603 13.5781 27.4293 10.2072 27.4293 10.2072 27.4293 10.2072 28.0857 9.69268 27.6814 9.1571 27.2771 8.62155 27.0092 8.31701 27.0092 8.31701L34.4021 2.01624ZM25.539 4.41054C25.6179 4.42104 25.6914 4.47879 25.7911 4.57856 26.1009 4.88834 26.5157 5.39766 26.7152 5.67069L25.4971 6.63681C25.455 6.26926 25.3869 5.65493 25.2871 5.25064 25.1873 4.74658 25.2976 4.38427 25.539 4.41054ZM16.802 18.8183C16.8965 18.7762 16.9806 18.7867 17.138 18.8183 17.138 18.8235 17.1801 18.813 17.1801 18.8183 17.3744 19.9682 16.865 20.8923 16.382 21.2546 15.9987 21.6379 15.7677 21.8216 15.5419 22.0106 15.4789 21.8584 15.2058 21.2546 15.2058 21.2546 15.2058 21.2546 14.7963 20.4407 15.3319 20.0364 15.8674 19.6321 16.55 19.0704 16.55 19.0704 16.55 19.0704 16.6183 18.9023 16.802 18.8183Z" transform="matrix(1.00022 0 0 1 83 51.4641)"/></g></g></g></g></svg>