<svg width="183" height="44" xmlns="http://www.w3.org/2000/svg" xmlns:xlink="http://www.w3.org/1999/xlink" xml:space="preserve" overflow="hidden"><defs><clipPath id="clip0"><rect x="782" y="270" width="183" height="44"/></clipPath><clipPath id="clip1"><rect x="782" y="274" width="34" height="36"/></clipPath><clipPath id="clip2"><rect x="782" y="274" width="34" height="36"/></clipPath><clipPath id="clip3"><rect x="782" y="274" width="34" height="36"/></clipPath></defs><g clip-path="url(#clip0)" transform="translate(-782 -270)"><text fill="#FFFFFF" font-family="Cyberspace,Cyberspace_MSFontService,sans-serif" font-weight="400" font-size="202" transform="matrix(0.16209 0 0 0.164553 816.674 305)">SCSG</text><g clip-path="url(#clip1)"><g clip-path="url(#clip2)"><g clip-path="url(#clip3)"><path d="M31.5846 0.401329 26.9694 4.21396C26.5981 3.76246 24.8624 1.62538 24.4008 1.16385 24.0145 0.652161 22.7252 0.255848 22.5949 1.92638 22.4795 3.80259 22.3138 5.75406 22.2738 6.14034 21.3306 6.95805 17.7387 9.8727 17.7387 9.8727 17.7387 9.8727 16.4295 8.49313 15.5314 9.39111 14.6335 10.1637 8.74897 15.0097 8.74897 15.0097 8.74897 15.0097 8.49313 15.411 8.74897 16.0532 9.00483 16.8258 9.24562 17.3224 8.98977 17.5782 8.6035 17.834 6.82259 19.5047 6.82259 19.5047 6.82259 19.5047 6.30087 20.0413 6.30087 21.0698 6.43131 22.0983 5.76409 23.1014 4.73568 23.9994 3.70728 24.8974 0.762525 27.3707 0.762525 27.3707 0.762525 27.3707-0.250832 28.0027 0.521728 28.7753L3.45144 32.3471C3.45144 32.3471 4.48486 33.9023 5.25742 32.7484 6.02997 31.5947 10.5148 22.354 10.5148 22.354 10.5148 22.354 11.0616 21.5815 11.3175 22.9962 11.5733 24.2805 14.2472 30.8221 14.2472 30.8221 14.2472 30.8221 14.6586 31.3288 15.1702 30.9426 15.6819 30.5561 17.5782 28.8957 17.5782 28.8957 17.5782 28.8957 18.2204 28.655 17.5782 27.3707 17.1518 26.5178 16.1836 24.1651 15.411 22.354 15.692 22.1232 15.8475 21.9778 16.9362 21.0698 17.6484 20.4778 17.8591 19.7053 17.8591 19.0631 19.043 20.0614 21.0899 21.5664 23.7587 22.2336 27.3557 23.1316 30.5813 23.2369 30.5813 23.2369 30.5813 23.2369 31.3338 23.2369 31.4642 21.9527 31.5947 20.6685 31.4642 18.742 31.4642 18.742 31.4642 18.742 31.5947 17.8591 30.8221 17.8591 30.0496 17.8591 28.7603 18.0899 27.0897 17.5782 25.4192 17.0665 21.7118 14.3676 21.7118 14.3676 21.7118 14.3676 21.0698 13.8709 21.7118 13.4847 22.2236 12.973 26.2068 9.7523 26.2068 9.7523 26.2068 9.7523 26.8339 9.26068 26.4476 8.74897 26.0614 8.23729 25.8054 7.94632 25.8054 7.94632L32.8688 1.92638ZM24.4008 4.21396C24.4761 4.22399 24.5463 4.27917 24.6416 4.37449 24.9376 4.67047 25.3339 5.15708 25.5245 5.41795L24.3607 6.34101C24.3205 5.98984 24.2554 5.40289 24.1601 5.01661 24.0647 4.53503 24.1701 4.18887 24.4008 4.21396ZM16.0532 17.9795C16.1435 17.9394 16.2238 17.9494 16.3742 17.9795 16.3742 17.9846 16.4144 17.9745 16.4144 17.9795 16.6 19.0782 16.1134 19.9611 15.6518 20.3073 15.2856 20.6735 15.0649 20.849 14.8492 21.0296 14.789 20.8842 14.5281 20.3073 14.5281 20.3073 14.5281 20.3073 14.1368 19.5296 14.6485 19.1434 15.1602 18.7571 15.8124 18.2204 15.8124 18.2204 15.8124 18.2204 15.8776 18.0598 16.0532 17.9795Z" fill="#FFFFFF" transform="matrix(1 0 0 1.01519 782 274.964)"/></g></g></g></g></svg>