<svg width="197" height="106" xmlns="http://www.w3.org/2000/svg" xmlns:xlink="http://www.w3.org/1999/xlink" xml:space="preserve" overflow="hidden"><defs><clipPath id="clip0"><rect x="778" y="294" width="197" height="106"/></clipPath></defs><g clip-path="url(#clip0)" transform="translate(-778 -294)"><text fill="#FFFFFF" font-family="Stencil,Stencil_MSFontService,sans-serif" font-weight="400" font-size="202" transform="matrix(0.248737 0 0 0.25 828.225 356)">SCSG</text><path d="M429.592 80.8396 422.523 86.6847C421.953 85.9925 419.294 82.7161 418.588 82.0087 417.996 81.2242 416.021 80.6165 415.822 83.1778 415.645 86.0542 415.391 89.046 415.329 89.6382 413.884 90.8919 408.382 95.3602 408.382 95.3602 408.382 95.3602 406.377 93.2452 405.002 94.6219 403.626 95.8064 394.612 103.236 394.612 103.236 394.612 103.236 394.219 103.851 394.612 104.836 395.002 106.02 395.373 106.781 394.98 107.174 394.388 107.566 391.659 110.127 391.659 110.127 391.659 110.127 390.861 110.95 390.861 112.527 391.06 114.103 390.038 115.641 388.463 117.018 386.889 118.395 382.377 122.187 382.377 122.187 382.377 122.187 380.824 123.156 382.008 124.34L386.496 129.816C386.496 129.816 388.08 132.2 389.262 130.431 390.446 128.663 397.316 114.496 397.316 114.496 397.316 114.496 398.154 113.311 398.544 115.48 398.937 117.449 403.034 127.478 403.034 127.478 403.034 127.478 403.663 128.255 404.447 127.663 405.23 127.07 408.136 124.525 408.136 124.525 408.136 124.525 409.121 124.156 408.136 122.187 407.484 120.879 405.999 117.272 404.818 114.496 405.248 114.142 405.484 113.919 407.153 112.527 408.243 111.619 408.566 110.435 408.566 109.45 410.379 110.981 413.516 113.288 417.603 114.311 423.115 115.688 428.055 115.849 428.055 115.849 428.055 115.849 429.209 115.849 429.408 113.88 429.607 111.911 429.408 108.958 429.408 108.958 429.408 108.958 429.607 107.604 428.423 107.604 427.241 107.604 425.266 107.958 422.707 107.174 420.147 106.389 414.469 102.251 414.469 102.251 414.469 102.251 413.484 101.49 414.469 100.898 415.252 100.114 421.354 95.1756 421.354 95.1756 421.354 95.1756 422.314 94.422 421.722 93.6374 421.132 92.8529 420.739 92.4069 420.739 92.4069L431.559 83.1778ZM418.588 86.6847C418.702 86.7001 418.812 86.7847 418.956 86.931 419.409 87.3847 420.018 88.1306 420.309 88.5306L418.526 89.9459C418.463 89.4074 418.364 88.5077 418.22 87.9152 418.073 87.177 418.234 86.6464 418.588 86.6847ZM405.8 107.789C405.939 107.728 406.061 107.743 406.293 107.789 406.293 107.797 406.352 107.781 406.352 107.789 406.638 109.474 405.892 110.827 405.186 111.358 404.624 111.919 404.285 112.189 403.954 112.465 403.862 112.242 403.464 111.358 403.464 111.358 403.464 111.358 402.865 110.166 403.649 109.573 404.432 108.981 405.432 108.158 405.432 108.158 405.432 108.158 405.531 107.912 405.8 107.789Z" fill="#FFFFFF" fill-rule="evenodd" transform="matrix(1 0 0 1.00508 396.437 233.5)"/></g></svg>