<svg width="102" height="29" xmlns="http://www.w3.org/2000/svg" xmlns:xlink="http://www.w3.org/1999/xlink" xml:space="preserve" overflow="hidden"><defs><clipPath id="clip0"><rect x="455" y="56" width="102" height="29"/></clipPath><clipPath id="clip1"><rect x="478" y="47" width="25" height="46"/></clipPath><clipPath id="clip2"><rect x="478" y="47" width="25" height="46"/></clipPath><clipPath id="clip3"><rect x="478" y="47" width="25" height="46"/></clipPath><clipPath id="clip4"><rect x="478" y="47" width="25" height="46"/></clipPath><clipPath id="clip5"><rect x="496" y="47" width="25" height="46"/></clipPath><clipPath id="clip6"><rect x="496" y="47" width="25" height="46"/></clipPath><clipPath id="clip7"><rect x="496" y="47" width="25" height="46"/></clipPath><clipPath id="clip8"><rect x="496" y="47" width="25" height="46"/></clipPath><clipPath id="clip9"><rect x="533" y="47" width="24" height="46"/></clipPath><clipPath id="clip10"><rect x="533" y="47" width="24" height="46"/></clipPath><clipPath id="clip11"><rect x="533" y="47" width="24" height="46"/></clipPath><clipPath id="clip12"><rect x="533" y="47" width="24" height="46"/></clipPath><clipPath id="clip13"><rect x="514" y="47" width="25" height="46"/></clipPath><clipPath id="clip14"><rect x="514" y="47" width="25" height="46"/></clipPath><clipPath id="clip15"><rect x="514" y="47" width="25" height="46"/></clipPath><clipPath id="clip16"><rect x="514" y="47" width="25" height="46"/></clipPath><clipPath id="clip17"><rect x="454" y="56" width="30" height="29"/></clipPath><clipPath id="clip18"><rect x="454" y="56" width="30" height="29"/></clipPath><clipPath id="clip19"><rect x="454" y="56" width="30" height="29"/></clipPath></defs><g clip-path="url(#clip0)" transform="translate(-455 -56)"><g clip-path="url(#clip1)"><g clip-path="url(#clip2)"><g clip-path="url(#clip3)"><g clip-path="url(#clip4)"><path d="M107.735 42.7016C107.988 42.69 108.186 42.7618 108.33 42.9168 108.473 43.0719 108.597 43.3447 108.7 43.7351 108.965 44.7229 109.346 45.6474 109.846 46.5088 110.346 47.3702 110.928 48.0996 111.595 48.6965 112.273 49.3168 113.053 49.7133 113.937 49.8857L113.937 51.8492C112.996 51.8492 111.957 51.5796 110.819 51.0396 110.394 50.8443 110.102 50.7182 109.94 50.6604 109.781 50.6031 109.625 50.5747 109.476 50.5747 109.246 50.5747 109.074 50.6119 108.959 50.6866 108.844 50.7613 108.66 50.9479 108.407 51.2463 108.201 51.4989 107.977 51.6255 107.735 51.6255 107.093 51.6255 106.771 51.1317 106.771 50.1438L106.771 43.873C106.771 43.5515 106.863 43.2786 107.047 43.0547 107.23 42.8307 107.46 42.713 107.735 42.7016ZM116.195 27.4896C116.883 27.5355 117.48 27.6245 117.986 27.7566 118.491 27.8887 119.209 28.1499 120.139 28.5404 120.369 28.6323 120.559 28.6783 120.708 28.6783 120.926 28.6783 121.087 28.6036 121.19 28.4543L121.569 27.9547C121.753 27.702 121.977 27.5757 122.241 27.5757 122.552 27.5757 122.779 27.6877 122.922 27.9116 123.066 28.1356 123.137 28.4888 123.137 28.9711L123.137 34.6562C123.137 34.9893 123.042 35.2621 122.853 35.4746 122.663 35.687 122.419 35.7932 122.121 35.7932 121.891 35.7932 121.678 35.7186 121.484 35.5693 121.38 35.4774 121.297 35.3654 121.233 35.2334 121.17 35.1013 121.11 34.8802 121.053 34.57 120.926 34.0073 120.708 33.4273 120.398 32.8301 120.088 32.2329 119.726 31.6988 119.313 31.228 118.485 30.2976 117.446 29.6832 116.195 29.3845ZM114.834 27.4034 114.834 29.3845C114.121 29.5798 113.579 29.8813 113.205 30.289 112.832 30.6967 112.645 31.1993 112.645 31.7965 112.645 32.3707 112.8 32.8731 113.111 33.3038 113.421 33.7346 113.926 34.1452 114.627 34.5357 115.109 34.7998 116.2 35.3051 117.9 36.0517 118.934 36.4996 119.735 36.9044 120.303 37.2662 120.872 37.628 121.409 38.0788 121.914 38.6186 123.269 40.0427 123.947 41.7367 123.947 43.7008 123.947 45.1823 123.58 46.5377 122.844 47.7663 122.109 48.9954 121.098 49.96 119.813 50.6604 119.123 51.0281 118.368 51.3183 117.546 51.5306 116.725 51.7433 115.959 51.8492 115.246 51.8492L115.246 49.8857C116.246 49.6441 116.967 49.3085 117.409 48.8776 117.851 48.4471 118.072 47.864 118.072 47.1291 118.072 46.3594 117.728 45.6819 117.039 45.0962 116.579 44.7171 115.706 44.2463 114.42 43.6835 113.007 43.0633 112.04 42.6211 111.517 42.357 110.994 42.0928 110.492 41.7827 110.01 41.4267 107.85 39.8877 106.771 37.8376 106.771 35.2764 106.771 33.9672 107.041 32.7583 107.581 31.65 108.12 30.5417 108.873 29.6488 109.837 28.9711 111.181 28.0293 112.847 27.5068 114.834 27.4034Z" fill="#FFFFFF" fill-rule="evenodd" transform="matrix(1 0 0 1.00592 375.111 29.6301)"/></g></g></g></g><g clip-path="url(#clip5)"><g clip-path="url(#clip6)"><g clip-path="url(#clip7)"><g clip-path="url(#clip8)"><path d="M123.527 44.5449C123.803 44.5449 124.033 44.6482 124.216 44.8549 124.401 45.0617 124.492 45.3201 124.492 45.6302 124.492 46.1471 124.294 46.7729 123.898 47.5082 123.502 48.2431 122.993 48.9207 122.373 49.5409 121.615 50.2987 120.837 50.8617 120.039 51.2294 119.241 51.5966 118.342 51.8033 117.342 51.8492L117.342 49.7477C118.238 49.6785 119.18 49.3397 120.168 48.7313 120.696 48.398 121.168 47.9529 121.581 47.3959 121.994 46.8389 122.305 46.2273 122.511 45.5613 122.626 45.1937 122.761 44.9325 122.916 44.7774 123.071 44.6224 123.275 44.5449 123.527 44.5449ZM123.493 27.4034C123.803 27.4034 124.042 27.4953 124.208 27.679 124.375 27.8628 124.457 28.1328 124.457 28.4888L124.457 35.6555C124.457 36.1149 124.354 36.4479 124.148 36.6547 123.941 36.8614 123.706 36.9648 123.442 36.9648 123.166 36.9648 122.945 36.8757 122.779 36.6977 122.612 36.5197 122.477 36.2297 122.373 35.8277 122.132 34.9204 121.897 34.2083 121.667 33.6914 121.173 32.6005 120.61 31.7161 119.979 31.0384 119.554 30.579 119.129 30.2259 118.704 29.979 118.279 29.732 117.808 29.5741 117.292 29.5052L117.292 27.4206C117.854 27.5125 118.311 27.6102 118.661 27.7135 119.011 27.8169 119.646 28.0351 120.564 28.3682 121.15 28.5749 121.54 28.6783 121.736 28.6783 122.069 28.6783 122.322 28.5289 122.494 28.2304L122.718 27.8169C122.856 27.5412 123.114 27.4034 123.493 27.4034ZM115.533 27.3862 115.93 27.4034 115.93 29.488C115.252 29.5913 114.747 29.89 114.414 30.3838 114.081 30.8776 113.915 31.584 113.915 32.5028L113.915 46.733 113.915 47.4734C113.915 47.7379 113.969 48.0162 114.078 48.3091 114.187 48.6021 114.328 48.8519 114.5 49.0587 114.684 49.2883 114.879 49.452 115.086 49.5496 115.293 49.6473 115.574 49.7133 115.93 49.7477L115.93 51.8492C113.702 51.8492 111.766 51.2693 110.124 50.1094 108.678 49.0871 107.586 47.7118 106.851 45.9834 106.117 44.2548 105.749 42.2077 105.749 39.8418 105.749 38.1075 105.987 36.491 106.464 34.9921 106.94 33.4934 107.632 32.1927 108.54 31.0901 109.459 29.9761 110.558 29.0802 111.839 28.4026 113.119 27.725 114.351 27.3862 115.533 27.3862Z" fill="#FFFFFF" fill-rule="evenodd" transform="matrix(1 0 0 1.00592 393.311 29.6301)"/></g></g></g></g><g clip-path="url(#clip9)"><g clip-path="url(#clip10)"><g clip-path="url(#clip11)"><g clip-path="url(#clip12)"><path d="M116.843 39.4627 117.412 39.4627 123.717 39.4627C124.234 39.4627 124.599 39.5345 124.811 39.6781 125.024 39.8216 125.13 40.0714 125.13 40.4275 125.13 40.6457 125.086 40.8266 125.001 40.9702 124.915 41.1137 124.757 41.2659 124.527 41.4267 124.297 41.5874 124.154 41.7367 124.096 41.8746 124.038 42.0124 124.01 42.2651 124.01 42.6326L124.01 48.5072C123.551 48.9665 122.939 49.4346 122.175 49.9114 121.411 50.3881 120.69 50.7641 120.013 51.0396 119.393 51.2807 118.707 51.476 117.954 51.6255 117.202 51.7749 116.539 51.8492 115.964 51.8492L115.964 49.9026C116.298 49.8224 116.547 49.7248 116.714 49.6097 116.881 49.4951 117.021 49.3342 117.136 49.1274 117.331 48.7712 117.429 48.3178 117.429 47.7663L117.429 42.7359C117.429 42.288 117.342 41.9665 117.17 41.7712 117.09 41.6564 117.01 41.5846 116.93 41.5559 116.849 41.5271 116.585 41.4611 116.137 41.3578 115.586 41.2199 115.31 40.8984 115.31 40.3931 115.31 40.0944 115.439 39.8647 115.697 39.7039 115.956 39.5432 116.338 39.4627 116.843 39.4627ZM123.459 27.4034C123.78 27.4034 124.007 27.4924 124.139 27.6705 124.271 27.8485 124.337 28.1442 124.337 28.5576L124.337 35.2592C124.337 36.1321 124.016 36.5685 123.373 36.5685 123.051 36.5685 122.812 36.4823 122.658 36.3101 122.503 36.1378 122.356 35.799 122.218 35.2937 122.046 34.6505 121.736 33.9011 121.288 33.0455 120.84 32.1898 120.409 31.515 119.996 31.0213 119.526 30.4469 118.997 30.0249 118.411 29.755 117.825 29.4851 117.096 29.3271 116.223 29.2812L116.223 27.4206C118.095 27.593 119.634 27.9375 120.84 28.4543 121.197 28.6151 121.472 28.6955 121.667 28.6955 121.851 28.6955 121.991 28.6525 122.089 28.5663 122.187 28.4801 122.385 28.2361 122.683 27.8341 122.89 27.547 123.148 27.4034 123.459 27.4034ZM114.811 27.4034 114.811 29.3157C113.8 29.5569 113.294 30.3608 113.294 31.7275L113.294 47.7663C113.294 48.3866 113.381 48.8634 113.553 49.1962 113.702 49.4722 114.018 49.7074 114.5 49.9026L114.5 51.8492C114.133 51.8492 113.797 51.8208 113.492 51.763 113.188 51.7057 112.783 51.5911 112.278 51.4187 111.072 51.0052 109.981 50.3735 109.005 49.5235 108.028 48.6736 107.225 47.6572 106.593 46.4744 105.617 44.6253 105.129 42.4373 105.129 39.9107 105.129 37.4643 105.565 35.2937 106.438 33.3986 107.31 31.5035 108.562 30.0163 110.193 28.9367 111.136 28.305 112.146 27.8513 113.225 27.5757 113.674 27.4609 114.202 27.4034 114.811 27.4034Z" fill="#FFFFFF" fill-rule="evenodd" transform="matrix(1 0 0 1.00592 429.664 29.6301)"/></g></g></g></g><g clip-path="url(#clip13)"><g clip-path="url(#clip14)"><g clip-path="url(#clip15)"><g clip-path="url(#clip16)"><path d="M107.735 42.7016C107.988 42.69 108.186 42.7618 108.33 42.9168 108.473 43.0719 108.597 43.3447 108.7 43.7351 108.965 44.7229 109.346 45.6474 109.846 46.5088 110.346 47.3702 110.928 48.0996 111.595 48.6965 112.273 49.3168 113.053 49.7133 113.937 49.8857L113.937 51.8492C112.996 51.8492 111.957 51.5796 110.819 51.0396 110.394 50.8443 110.102 50.7182 109.94 50.6604 109.781 50.6031 109.625 50.5747 109.476 50.5747 109.246 50.5747 109.074 50.6119 108.959 50.6866 108.844 50.7613 108.66 50.9479 108.407 51.2463 108.201 51.4989 107.977 51.6255 107.735 51.6255 107.093 51.6255 106.771 51.1317 106.771 50.1438L106.771 43.873C106.771 43.5515 106.863 43.2786 107.047 43.0547 107.23 42.8307 107.46 42.713 107.735 42.7016ZM116.195 27.4896C116.883 27.5355 117.48 27.6245 117.986 27.7566 118.491 27.8887 119.209 28.1499 120.139 28.5404 120.369 28.6323 120.559 28.6783 120.708 28.6783 120.926 28.6783 121.087 28.6036 121.19 28.4543L121.569 27.9547C121.753 27.702 121.977 27.5757 122.241 27.5757 122.552 27.5757 122.779 27.6877 122.922 27.9116 123.066 28.1356 123.137 28.4888 123.137 28.9711L123.137 34.6562C123.137 34.9893 123.042 35.2621 122.853 35.4746 122.663 35.687 122.419 35.7932 122.121 35.7932 121.891 35.7932 121.678 35.7186 121.484 35.5693 121.38 35.4774 121.297 35.3654 121.233 35.2334 121.17 35.1013 121.11 34.8802 121.053 34.57 120.926 34.0073 120.708 33.4273 120.398 32.8301 120.088 32.2329 119.726 31.6988 119.313 31.228 118.485 30.2976 117.446 29.6832 116.195 29.3845ZM114.834 27.4034 114.834 29.3845C114.121 29.5798 113.579 29.8813 113.205 30.289 112.832 30.6967 112.645 31.1993 112.645 31.7965 112.645 32.3707 112.8 32.8731 113.111 33.3038 113.421 33.7346 113.926 34.1452 114.627 34.5357 115.109 34.7998 116.2 35.3051 117.9 36.0517 118.934 36.4996 119.735 36.9044 120.303 37.2662 120.872 37.628 121.409 38.0788 121.914 38.6186 123.269 40.0427 123.947 41.7367 123.947 43.7008 123.947 45.1823 123.58 46.5377 122.844 47.7663 122.109 48.9954 121.098 49.96 119.813 50.6604 119.123 51.0281 118.368 51.3183 117.546 51.5306 116.725 51.7433 115.959 51.8492 115.246 51.8492L115.246 49.8857C116.246 49.6441 116.967 49.3085 117.409 48.8776 117.851 48.4471 118.072 47.864 118.072 47.1291 118.072 46.3594 117.728 45.6819 117.039 45.0962 116.579 44.7171 115.706 44.2463 114.42 43.6835 113.007 43.0633 112.04 42.6211 111.517 42.357 110.994 42.0928 110.492 41.7827 110.01 41.4267 107.85 39.8877 106.771 37.8376 106.771 35.2764 106.771 33.9672 107.041 32.7583 107.581 31.65 108.12 30.5417 108.873 29.6488 109.837 28.9711 111.181 28.0293 112.847 27.5068 114.834 27.4034Z" fill="#FFFFFF" fill-rule="evenodd" transform="matrix(1 0 0 1.00592 411.465 29.6301)"/></g></g></g></g><g clip-path="url(#clip17)"><g clip-path="url(#clip18)"><g clip-path="url(#clip19)"><path d="M26.7985 0.340514 22.8826 3.5754C22.5675 3.19232 21.0949 1.37908 20.7032 0.987493 20.3755 0.553335 19.2816 0.217078 19.171 1.63447 19.073 3.22637 18.9326 4.88211 18.8986 5.20989 18.0983 5.90367 15.0507 8.37665 15.0507 8.37665 15.0507 8.37665 13.9398 7.20615 13.1779 7.96801 12.4159 8.62352 7.42322 12.7352 7.42322 12.7352 7.42322 12.7352 7.20615 13.0758 7.42322 13.6206 7.64028 14.2761 7.8446 14.6974 7.62754 14.9145 7.29976 15.1316 5.78874 16.549 5.78874 16.549 5.78874 16.549 5.34608 17.0045 5.34608 17.877 5.45675 18.7495 4.89064 19.6009 4.01807 20.3627 3.1455 21.1246 0.646978 23.2231 0.646978 23.2231 0.646978 23.2231-0.212822 23.7594 0.442669 24.4148L2.92842 27.4454C2.92842 27.4454 3.80525 28.7649 4.46073 27.7859 5.11623 26.807 8.92145 18.9666 8.92145 18.9666 8.92145 18.9666 9.38542 18.3112 9.60249 19.5114 9.8196 20.6011 12.0883 26.1515 12.0883 26.1515 12.0883 26.1515 12.4373 26.5813 12.8714 26.2537 13.3056 25.9259 14.9145 24.517 14.9145 24.517 14.9145 24.517 15.4593 24.3127 14.9145 23.2231 14.5528 22.4994 13.7313 20.5032 13.0758 18.9666 13.3141 18.7709 13.446 18.6474 14.3697 17.877 14.9741 17.3747 15.1528 16.7193 15.1528 16.1745 16.1574 17.0214 17.8941 18.2984 20.1585 18.8645 23.2103 19.6264 25.9472 19.7158 25.9472 19.7158 25.9472 19.7158 26.5856 19.7158 26.6963 18.6262 26.807 17.5365 26.6963 15.9021 26.6963 15.9021 26.6963 15.9021 26.807 15.1528 26.1515 15.1528 25.496 15.1528 24.4021 15.3486 22.9847 14.9145 21.5673 14.4804 18.4217 12.1904 18.4217 12.1904 18.4217 12.1904 17.877 11.7691 18.4217 11.4413 18.856 11.0072 22.2355 8.27452 22.2355 8.27452 22.2355 8.27452 22.7676 7.85735 22.44 7.42322 22.1122 6.98904 21.8951 6.74218 21.8951 6.74218L27.8882 1.63447ZM20.7032 3.5754C20.7671 3.58391 20.8267 3.63073 20.9076 3.7116 21.1587 3.96273 21.495 4.3756 21.6567 4.59692L20.6693 5.38014C20.6352 5.08217 20.5798 4.58417 20.4989 4.25643 20.4181 3.84781 20.5075 3.55412 20.7032 3.5754ZM13.6206 15.255C13.6972 15.221 13.7653 15.2295 13.893 15.255 13.893 15.2593 13.927 15.2508 13.927 15.255 14.0845 16.1872 13.6717 16.9364 13.28 17.23 12.9693 17.5408 12.7821 17.6897 12.599 17.8429 12.5479 17.7195 12.3266 17.23 12.3266 17.23 12.3266 17.23 11.9946 16.5703 12.4287 16.2425 12.863 15.9148 13.4163 15.4593 13.4163 15.4593 13.4163 15.4593 13.4716 15.3232 13.6206 15.255Z" fill="#FFFFFF" transform="matrix(1 0 0 1.00595 455 56.1721)"/></g></g></g></g></svg>