<svg width="1129" height="424" xmlns="http://www.w3.org/2000/svg" xmlns:xlink="http://www.w3.org/1999/xlink" xml:space="preserve" overflow="hidden"><defs><clipPath id="clip0"><rect x="1522" y="242" width="1129" height="424"/></clipPath><clipPath id="clip1"><rect x="1522" y="346" width="207" height="208"/></clipPath><clipPath id="clip2"><rect x="1522" y="346" width="207" height="208"/></clipPath><clipPath id="clip3"><rect x="1522" y="346" width="207" height="208"/></clipPath></defs><g clip-path="url(#clip0)" transform="translate(-1522 -242)"><text font-family="Cyberspace,Cyberspace_MSFontService,sans-serif" font-weight="400" font-size="202" transform="matrix(1 0 0 1 1735.92 528)">SCSG</text><g clip-path="url(#clip1)"><g clip-path="url(#clip2)"><g clip-path="url(#clip3)"><path d="M194.858 2.47596 166.385 25.9976C164.094 23.2121 153.386 10.0276 150.538 7.18028 148.155 4.02344 140.201 1.57843 139.397 11.8846 138.685 23.4597 137.663 35.4991 137.416 37.8822 131.597 42.927 109.437 60.9086 109.437 60.9086 109.437 60.9086 101.36 52.3975 95.8197 57.9375 90.2797 62.7037 53.9759 92.6009 53.9759 92.6009 53.9759 92.6009 52.3975 95.0769 53.9759 99.0384 55.5544 103.805 57.0399 106.869 55.4615 108.447 53.0784 110.025 42.0913 120.332 42.0913 120.332 42.0913 120.332 38.8726 123.643 38.8726 129.988 39.6773 136.333 35.561 142.522 29.2163 148.062 22.8717 153.602 4.70432 168.861 4.70432 168.861 4.70432 168.861-1.54748 172.76 3.21875 177.526L21.2933 199.562C21.2933 199.562 27.6689 209.157 32.4351 202.038 37.2013 194.92 64.8702 137.911 64.8702 137.911 64.8702 137.911 68.2437 133.145 69.8221 141.873 71.4005 149.796 87.8966 190.154 87.8966 190.154 87.8966 190.154 90.4345 193.28 93.5913 190.897 96.7482 188.513 108.447 178.269 108.447 178.269 108.447 178.269 112.409 176.784 108.447 168.861 105.816 163.599 99.8431 149.084 95.0769 137.911 96.8101 136.487 97.7695 135.59 104.486 129.988 108.88 126.336 110.18 121.57 110.18 117.608 117.484 123.767 130.112 133.052 146.577 137.168 168.768 142.708 188.668 143.358 188.668 143.358 188.668 143.358 193.311 143.358 194.115 135.435 194.92 127.512 194.115 115.627 194.115 115.627 194.115 115.627 194.92 110.18 190.154 110.18 185.388 110.18 177.434 111.604 167.127 108.447 156.821 105.29 133.949 88.6394 133.949 88.6394 133.949 88.6394 129.988 85.5754 133.949 83.1923 137.106 80.0354 161.68 60.1658 161.68 60.1658 161.68 60.1658 165.549 57.1328 163.166 53.9759 160.783 50.8191 159.204 49.024 159.204 49.024L202.781 11.8846ZM150.538 25.9976C151.003 26.0595 151.436 26.3999 152.024 26.988 153.85 28.814 156.295 31.8161 157.471 33.4255L150.291 39.1202C150.043 36.9537 149.641 33.3326 149.053 30.9495 148.465 27.9784 149.115 25.8428 150.538 25.9976ZM99.0384 110.923C99.5955 110.675 100.091 110.737 101.019 110.923 101.019 110.954 101.267 110.892 101.267 110.923 102.412 117.701 99.4098 123.148 96.5625 125.284 94.3031 127.543 92.9414 128.626 91.6105 129.74 91.2391 128.843 89.6298 125.284 89.6298 125.284 89.6298 125.284 87.2157 120.486 90.3726 118.103 93.5294 115.72 97.5528 112.409 97.5528 112.409 97.5528 112.409 97.9552 111.418 99.0384 110.923Z" transform="matrix(1 0 0 1 1522 347)"/></g></g></g></g></svg>